<svg width="311" height="295" viewBox="0 0 311 295" fill="none" xmlns="http://www.w3.org/2000/svg">
<path d="M203.487 136.702C183.656 123.274 158.669 120.893 136.648 130.338C114.627 139.783 99.1286 159.526 95.1909 183.149L85.6968 240.072C84.1216 249.515 85.5993 259.012 89.9654 267.531C94.3329 276.051 101.182 282.791 109.774 287.03C118.366 291.262 127.891 292.588 137.319 290.866C146.747 289.145 155.19 284.532 161.736 277.531L162.173 277.06C178.72 259.623 201.942 249.758 225.997 249.97C232.201 250.025 238.231 248.812 243.812 246.418C246.847 245.117 249.753 243.463 252.482 241.477C260.228 235.835 265.833 228.02 268.691 218.875C271.546 209.734 271.385 200.123 268.223 191.083C265.062 182.043 259.2 174.428 251.271 169.057L203.487 136.702ZM74.2406 192.064C81.3581 185.141 84.8887 175.505 84.1809 164.931C83.5086 154.869 79.0232 145.107 71.5487 137.443C64.0753 129.786 54.4267 125.056 44.3784 124.123C33.8239 123.145 24.0949 126.422 16.9935 133.346C2.70073 147.259 3.90946 171.756 19.6949 187.964C32.2808 200.854 50.3658 204.643 64.4209 198.614C68.07 197.055 71.3992 194.834 74.2406 192.064ZM114.81 133.258C136.203 124.083 145.111 96.8059 134.666 72.4534C124.219 48.0946 98.3155 35.7431 76.9226 44.9183C55.5317 54.0926 46.628 81.3725 57.0751 105.731C67.5196 130.084 93.419 142.433 114.81 133.258ZM186.468 115.372L186.47 115.371C190.151 115.059 193.758 114.156 197.152 112.698C212.754 106.007 223.092 88.1406 221.415 68.2155C220.452 56.7458 215.68 46.2274 207.981 38.5999C199.923 30.6136 189.661 26.709 179.085 27.6053C168.507 28.5022 159.044 34.0792 152.435 43.3071C146.121 52.1218 143.178 63.2942 144.145 74.762C146.183 98.9565 165.169 117.174 186.468 115.372ZM265.962 75.1754L265.953 75.1719C246.53 70.6104 226.49 84.7928 221.28 106.794C216.085 128.798 227.648 150.425 247.052 155.004C254.13 156.677 261.294 155.854 267.79 153.068C279.114 148.212 288.417 137.385 291.738 123.389C296.931 101.385 285.37 79.7572 265.961 75.1749L265.962 75.1754Z" fill="#E47537"/>
</svg>
